<svg width="214" height="214" viewBox="0 0 214 214" fill="none" xmlns="http://www.w3.org/2000/svg">
<g filter="url(#filter0_d)">
<circle cx="107" cy="103" r="103" fill="white"/>
<circle cx="107" cy="103" r="102" stroke="#096172" stroke-width="2"/>
</g>
<g clip-path="url(#clip0)" filter="url(#filter1_d)">
<path d="M177.768 69.8783C177.335 68.2657 176.277 66.8908 174.829 66.0573C173.38 65.2197 171.658 64.9932 170.042 65.4268C168.429 65.8615 167.054 66.9185 166.22 68.3661L165.17 70.1931C164.173 69.62 162.899 69.9573 162.315 70.9497L156.982 80.0403L155.155 78.9904C154.671 78.7106 154.095 78.6347 153.556 78.7803C153.016 78.9269 152.556 79.2816 152.278 79.7676C151.709 80.7712 152.056 82.0466 153.056 82.6228L154.882 83.6726L137.036 114.6L132.626 126.38L130.526 130.306C129.297 132.444 129.428 135.103 130.863 137.109L126.138 142.903L124.816 139.587C124.219 138.108 122.838 137.096 121.25 136.972C119.661 136.846 118.139 137.632 117.32 138.998L116.564 140.279L115.85 131.88C115.686 129.893 114.148 128.296 112.169 128.056C110.189 127.817 108.315 129.004 107.683 130.894L102.518 146.389C102.157 147.485 102.747 148.666 103.84 149.035C104.045 149.131 104.266 149.188 104.491 149.202C105.393 149.205 106.197 148.63 106.486 147.775L111.63 132.28L112.365 140.804C112.516 142.623 113.824 144.135 115.601 144.547C117.379 144.959 119.218 144.176 120.154 142.61L120.931 141.329L122.233 144.626C122.786 146.015 124.036 147.006 125.515 147.227C126.995 147.447 128.479 146.864 129.414 145.696L134.306 139.503C134.848 139.644 135.405 139.715 135.965 139.713C138.216 139.73 140.305 138.545 141.445 136.605L143.545 133.098L151.544 123.377L169.58 92.0712L171.407 93.121C171.894 93.3999 172.249 93.8602 172.393 94.4025C172.539 94.9408 172.463 95.5149 172.184 95.9978L163.785 110.549C163.469 111.026 163.361 111.613 163.488 112.173C163.615 112.731 163.965 113.214 164.457 113.508C164.941 113.789 165.517 113.865 166.056 113.72C166.597 113.573 167.056 113.218 167.334 112.732L175.732 98.1815C176.57 96.7328 176.796 95.0105 176.362 93.3947C175.927 91.781 174.87 90.4062 173.422 89.5727L171.596 88.5229L176.845 79.4313C177.418 78.4338 177.08 77.1604 176.089 76.5761L177.139 74.7491C177.999 73.2779 178.227 71.5207 177.768 69.8783ZM169.853 70.4658C170.13 69.9798 170.592 69.6241 171.134 69.4795C171.673 69.3462 172.243 69.4211 172.729 69.6897C173.216 69.9675 173.571 70.4289 173.717 70.9702C173.85 71.5094 173.775 72.0795 173.507 72.5654L172.457 74.3924L168.803 72.2927L169.853 70.4658ZM141.235 129.089L140.185 128.48L137.078 126.673L140.059 118.695L146.673 122.516L141.235 129.089ZM134.936 135.156C134.049 134.538 133.776 133.348 134.306 132.405L135.356 130.579L139.009 132.679L137.959 134.484C137.665 134.995 137.171 135.358 136.596 135.486C136.021 135.613 135.419 135.494 134.936 135.156ZM149.066 119.073L141.802 114.874L158.599 85.7723L165.864 89.9715L149.066 119.073ZM167.963 86.3392L160.699 82.1399L164.898 74.8752L172.162 79.0745L167.963 86.3392Z" fill="url(#paint0_linear)"/>
<path d="M85.1319 134.106L77.7001 141.518L73.2486 137.067C72.4295 136.253 71.107 136.253 70.2878 137.067C69.89 137.461 69.6665 137.998 69.6665 138.557C69.6665 139.117 69.89 139.654 70.2878 140.048L74.7393 144.5C75.5267 145.281 76.5908 145.719 77.7001 145.717C78.8156 145.724 79.889 145.286 80.6815 144.5L88.0927 137.067C88.8063 136.233 88.7581 134.992 87.983 134.217C87.2069 133.441 85.9654 133.392 85.1319 134.106Z" fill="url(#paint1_linear)"/>
<path d="M60.3986 139.754C60.3986 149.612 68.3891 157.601 78.2455 157.601C88.1019 157.601 96.0925 149.612 96.0925 139.754C96.0925 138.595 95.1524 137.654 93.9928 137.654C92.8333 137.654 91.8932 138.595 91.8932 139.754C91.8932 147.291 85.7829 153.402 78.2455 153.402C70.7081 153.402 64.5978 147.291 64.5978 139.754C64.5978 132.217 70.7081 126.106 78.2455 126.106C81.2002 126.098 84.0759 127.057 86.4339 128.837C87.3617 129.533 88.6781 129.344 89.3732 128.416C90.0693 127.488 89.8817 126.173 88.9539 125.477C83.5459 121.421 76.3099 120.769 70.2642 123.791C64.2175 126.815 60.3986 132.995 60.3986 139.754Z" fill="url(#paint2_linear)"/>
<path d="M127.587 56.8179C128.747 56.8179 129.687 55.8788 129.687 54.7183C129.687 53.5588 128.747 52.6187 127.587 52.6187H72.9964C71.8369 52.6187 70.8968 53.5588 70.8968 54.7183V63.1169C70.8968 64.2774 71.8369 65.2165 72.9964 65.2165H127.587C128.747 65.2165 129.687 64.2774 129.687 63.1169C129.687 61.9573 128.747 61.0172 127.587 61.0172H75.0961V56.8179H127.587Z" fill="url(#paint3_linear)"/>
<path d="M79.2954 69.416C78.1358 69.416 77.1957 70.3561 77.1957 71.5157C77.1957 72.6762 78.1358 73.6153 79.2954 73.6153H121.288C122.448 73.6153 123.388 72.6762 123.388 71.5157C123.388 70.3561 122.448 69.416 121.288 69.416H79.2954Z" fill="url(#paint4_linear)"/>
<path d="M133.886 84.1133H87.6939C86.5344 84.1133 85.5943 85.0534 85.5943 86.2129C85.5943 87.3735 86.5344 88.3126 87.6939 88.3126H133.886C135.046 88.3126 135.986 87.3735 135.986 86.2129C135.986 85.0534 135.046 84.1133 133.886 84.1133Z" fill="url(#paint5_linear)"/>
<path d="M112.89 98.8111C112.89 97.6515 111.95 96.7114 110.79 96.7114H68.7971C67.6376 96.7114 66.6975 97.6515 66.6975 98.8111C66.6975 99.9716 67.6376 100.911 68.7971 100.911H110.79C111.95 100.911 112.89 99.9716 112.89 98.8111Z" fill="url(#paint6_linear)"/>
<path d="M133.886 96.7114H119.189C118.029 96.7114 117.089 97.6515 117.089 98.8111C117.089 99.9716 118.029 100.911 119.189 100.911H133.886C135.046 100.911 135.986 99.9716 135.986 98.8111C135.986 97.6515 135.046 96.7114 133.886 96.7114Z" fill="url(#paint7_linear)"/>
<path d="M89.7936 111.409C90.9531 111.409 91.8932 110.47 91.8932 109.309C91.8932 108.15 90.9531 107.209 89.7936 107.209H68.7971C67.6376 107.209 66.6975 108.15 66.6975 109.309C66.6975 110.47 67.6376 111.409 68.7971 111.409H89.7936Z" fill="url(#paint8_linear)"/>
<path d="M98.1921 111.409H112.89C114.049 111.409 114.989 110.47 114.989 109.309C114.989 108.15 114.049 107.209 112.89 107.209H98.1921C97.0326 107.209 96.0925 108.15 96.0925 109.309C96.0925 110.47 97.0326 111.409 98.1921 111.409Z" fill="url(#paint9_linear)"/>
<path d="M146.484 136.605C145.324 136.605 144.384 137.545 144.384 138.704V159.701C144.384 160.861 143.444 161.8 142.285 161.8H58.2989C57.1394 161.8 56.1993 160.861 56.1993 159.701V46.3199C56.1993 45.1604 57.1394 44.2203 58.2989 44.2203H142.285C143.444 44.2203 144.384 45.1604 144.384 46.3199V85.7518C144.384 86.9113 145.324 87.8514 146.484 87.8514C147.643 87.8514 148.584 86.9113 148.584 85.7518V46.3199C148.584 42.8414 145.763 40.021 142.285 40.021H58.2989C54.8204 40.021 52 42.8414 52 46.3199V159.701C52 163.18 54.8204 166 58.2989 166H142.285C145.763 166 148.584 163.18 148.584 159.701V138.704C148.584 137.545 147.643 136.605 146.484 136.605Z" fill="url(#paint10_linear)"/>
</g>
<defs>
<filter id="filter0_d" x="0" y="0" width="214" height="214" filterUnits="userSpaceOnUse" color-interpolation-filters="sRGB">
<feFlood flood-opacity="0" result="BackgroundImageFix"/>
<feColorMatrix in="SourceAlpha" type="matrix" values="0 0 0 0 0 0 0 0 0 0 0 0 0 0 0 0 0 0 127 0"/>
<feOffset dy="4"/>
<feGaussianBlur stdDeviation="2"/>
<feColorMatrix type="matrix" values="0 0 0 0 0 0 0 0 0 0 0 0 0 0 0 0 0 0 0.25 0"/>
<feBlend mode="normal" in2="BackgroundImageFix" result="effect1_dropShadow"/>
<feBlend mode="normal" in="SourceGraphic" in2="effect1_dropShadow" result="shape"/>
</filter>
<filter id="filter1_d" x="48" y="40" width="134" height="134" filterUnits="userSpaceOnUse" color-interpolation-filters="sRGB">
<feFlood flood-opacity="0" result="BackgroundImageFix"/>
<feColorMatrix in="SourceAlpha" type="matrix" values="0 0 0 0 0 0 0 0 0 0 0 0 0 0 0 0 0 0 127 0"/>
<feOffset dy="4"/>
<feGaussianBlur stdDeviation="2"/>
<feColorMatrix type="matrix" values="0 0 0 0 0 0 0 0 0 0 0 0 0 0 0 0 0 0 0.3 0"/>
<feBlend mode="normal" in2="BackgroundImageFix" result="effect1_dropShadow"/>
<feBlend mode="normal" in="SourceGraphic" in2="effect1_dropShadow" result="shape"/>
</filter>
<linearGradient id="paint0_linear" x1="140.206" y1="65.2114" x2="140.206" y2="149.202" gradientUnits="userSpaceOnUse">
<stop stop-color="#00D6FF" stop-opacity="0.73"/>
<stop offset="0.447917" stop-color="#0E7A83"/>
</linearGradient>
<linearGradient id="paint1_linear" x1="79.1321" y1="133.601" x2="79.1321" y2="145.718" gradientUnits="userSpaceOnUse">
<stop stop-color="#00D6FF" stop-opacity="0.73"/>
<stop offset="0.447917" stop-color="#0E7A83"/>
</linearGradient>
<linearGradient id="paint2_linear" x1="78.2455" y1="121.908" x2="78.2455" y2="157.601" gradientUnits="userSpaceOnUse">
<stop stop-color="#00D6FF" stop-opacity="0.73"/>
<stop offset="0.447917" stop-color="#0E7A83"/>
</linearGradient>
<linearGradient id="paint3_linear" x1="100.292" y1="52.6187" x2="100.292" y2="65.2165" gradientUnits="userSpaceOnUse">
<stop stop-color="#00D6FF" stop-opacity="0.73"/>
<stop offset="0.447917" stop-color="#0E7A83"/>
</linearGradient>
<linearGradient id="paint4_linear" x1="100.292" y1="69.416" x2="100.292" y2="73.6153" gradientUnits="userSpaceOnUse">
<stop stop-color="#00D6FF" stop-opacity="0.73"/>
<stop offset="0.447917" stop-color="#0E7A83"/>
</linearGradient>
<linearGradient id="paint5_linear" x1="110.79" y1="84.1133" x2="110.79" y2="88.3126" gradientUnits="userSpaceOnUse">
<stop stop-color="#00D6FF" stop-opacity="0.73"/>
<stop offset="0.447917" stop-color="#0E7A83"/>
</linearGradient>
<linearGradient id="paint6_linear" x1="89.7936" y1="96.7114" x2="89.7936" y2="100.911" gradientUnits="userSpaceOnUse">
<stop stop-color="#00D6FF" stop-opacity="0.73"/>
<stop offset="0.447917" stop-color="#0E7A83"/>
</linearGradient>
<linearGradient id="paint7_linear" x1="126.537" y1="96.7114" x2="126.537" y2="100.911" gradientUnits="userSpaceOnUse">
<stop stop-color="#00D6FF" stop-opacity="0.73"/>
<stop offset="0.447917" stop-color="#0E7A83"/>
</linearGradient>
<linearGradient id="paint8_linear" x1="79.2953" y1="107.209" x2="79.2953" y2="111.409" gradientUnits="userSpaceOnUse">
<stop stop-color="#00D6FF" stop-opacity="0.73"/>
<stop offset="0.447917" stop-color="#0E7A83"/>
</linearGradient>
<linearGradient id="paint9_linear" x1="105.541" y1="107.209" x2="105.541" y2="111.409" gradientUnits="userSpaceOnUse">
<stop stop-color="#00D6FF" stop-opacity="0.73"/>
<stop offset="0.447917" stop-color="#0E7A83"/>
</linearGradient>
<linearGradient id="paint10_linear" x1="100.292" y1="40.021" x2="100.292" y2="166" gradientUnits="userSpaceOnUse">
<stop stop-color="#00D6FF" stop-opacity="0.73"/>
<stop offset="0.447917" stop-color="#0E7A83"/>
</linearGradient>
<clipPath id="clip0">
<rect width="126" height="126" fill="white" transform="translate(52 40)"/>
</clipPath>
</defs>
</svg>
