<svg width="211" height="214" viewBox="0 0 211 214" fill="none" xmlns="http://www.w3.org/2000/svg">
<g filter="url(#filter0_d)">
<path d="M170.812 108.602V100.232L173.627 99.177C187.572 93.9488 196.938 80.4323 196.938 65.5411V48.9844C200.539 48.9844 203.469 46.0551 203.469 42.4531V35.9219C203.469 32.3199 200.539 29.3906 196.938 29.3906H196.745C195.112 14.7182 182.647 3.26562 167.547 3.26562H141.422C126.322 3.26562 113.853 14.7182 112.224 29.3906H112.031C108.429 29.3906 105.5 32.3199 105.5 35.9219V42.4531C105.5 46.0551 108.429 48.9844 112.031 48.9844H118.562V54.5261L113.707 61.8052C112.609 63.4544 112.031 65.3713 112.031 67.347C112.031 71.3637 114.265 74.9755 117.86 76.7781L118.562 77.1275V84.9062C118.562 93.9096 125.887 101.234 134.891 101.234H144.688V108.171L140.841 108.683C122.295 111.159 106.725 123.245 99.6513 140.422H82.6406V97.9688H102.234V71.8438H56.5156V81.6406H49.9844V71.8438H30.3906V52.25H49.9844V19.5938H4.26562V52.25H23.8594V71.8438H4.26562V97.9688H49.9844V88.1719H56.5156V97.9688H76.1094V140.422H63.0469V114.297H46.7188C37.7154 114.297 30.3906 121.622 30.3906 130.625V189.406C30.3906 198.41 37.7154 205.734 46.7188 205.734H141.422V192.672H172.125C191.21 192.672 206.734 177.144 206.734 158.06C206.734 135.51 192.085 115.525 170.812 108.602ZM10.7969 26.125H43.4531V45.7188H10.7969V26.125ZM43.4531 91.4375H10.7969V78.375H43.4531V91.4375ZM63.0469 78.375H95.7031V91.4375H63.0469V78.375ZM190.406 65.5411C190.406 77.7219 182.742 88.7825 171.335 93.0605L170.812 93.2564V86.5391L178.216 80.9875C181.759 78.326 183.875 74.0938 183.875 69.6656C183.875 62.2298 178.108 56.1165 170.812 55.5581V48.9844H190.406V65.5411ZM141.422 9.79688H167.547C179.039 9.79688 188.551 18.3332 190.145 29.3906H118.824C120.417 18.3332 129.93 9.79688 141.422 9.79688ZM112.031 35.9219H196.938V42.4531H112.031V35.9219ZM134.891 94.7031C129.489 94.7031 125.094 90.3076 125.094 84.9062V73.0912L120.783 70.9359C119.412 70.2501 118.562 68.8753 118.562 67.347C118.562 66.6612 118.765 65.9983 119.141 65.4301L125.094 56.5051V48.9844H164.281V62.0469H169.725C173.925 62.0469 177.344 65.466 177.344 69.6656C177.344 72.0495 176.204 74.3322 174.294 75.7625L164.281 83.2734V111.031C164.281 114.633 161.352 117.562 157.75 117.562C154.148 117.562 151.219 114.633 151.219 111.031V94.7031H134.891ZM46.7188 120.828H56.5156V140.422H46.7188C41.3174 140.422 36.9219 136.026 36.9219 130.625C36.9219 125.224 41.3174 120.828 46.7188 120.828ZM134.891 199.203H46.7188C41.3174 199.203 36.9219 194.808 36.9219 189.406V143.603C39.6585 145.676 43.0286 146.953 46.7188 146.953H134.891V160.016C127.687 160.016 121.828 165.874 121.828 173.078V179.609C121.828 186.813 127.687 192.672 134.891 192.672V199.203ZM147.953 186.141H134.891C131.289 186.141 128.359 183.211 128.359 179.609V173.078C128.359 169.476 131.289 166.547 134.891 166.547H140.628C142.372 166.547 144.012 167.226 145.249 168.461L147.953 171.164V186.141ZM172.125 186.141H154.484V173.078H167.152C172.488 173.078 177.507 170.998 181.285 167.223C185.06 163.451 187.141 158.432 187.141 153.089V143.688H180.609V153.089C180.609 156.688 179.208 160.065 176.668 162.605C174.16 165.11 170.692 166.547 167.152 166.547H152.571L149.867 163.843C147.587 161.564 144.609 160.287 141.422 160.094V140.422H106.8C113.416 126.729 126.397 117.2 141.706 115.159L145.272 114.685C146.862 120.103 151.823 124.094 157.75 124.094C163.468 124.094 168.285 120.377 170.052 115.254C187.967 121.674 200.203 138.796 200.203 158.06C200.203 173.545 187.608 186.141 172.125 186.141Z" fill="url(#paint0_linear)"/>
<path d="M17.3281 32.6562H36.9219V39.1875H17.3281V32.6562Z" fill="url(#paint1_linear)"/>
<path d="M161.016 137.156H174.078V143.688H161.016V137.156Z" fill="url(#paint2_linear)"/>
</g>
<defs>
<filter id="filter0_d" x="-3" y="0" width="217" height="217" filterUnits="userSpaceOnUse" color-interpolation-filters="sRGB">
<feFlood flood-opacity="0" result="BackgroundImageFix"/>
<feColorMatrix in="SourceAlpha" type="matrix" values="0 0 0 0 0 0 0 0 0 0 0 0 0 0 0 0 0 0 127 0"/>
<feOffset dy="4"/>
<feGaussianBlur stdDeviation="2"/>
<feColorMatrix type="matrix" values="0 0 0 0 0 0 0 0 0 0 0 0 0 0 0 0 0 0 0.25 0"/>
<feBlend mode="normal" in2="BackgroundImageFix" result="effect1_dropShadow"/>
<feBlend mode="normal" in="SourceGraphic" in2="effect1_dropShadow" result="shape"/>
</filter>
<linearGradient id="paint0_linear" x1="105.5" y1="3.26562" x2="105.5" y2="205.734" gradientUnits="userSpaceOnUse">
<stop offset="0.130208" stop-color="#00D6FF" stop-opacity="0.61"/>
<stop offset="0.677083" stop-color="#0D8089" stop-opacity="0.78"/>
</linearGradient>
<linearGradient id="paint1_linear" x1="27.125" y1="32.6562" x2="27.125" y2="39.1875" gradientUnits="userSpaceOnUse">
<stop offset="0.130208" stop-color="#00D6FF" stop-opacity="0.61"/>
<stop offset="0.677083" stop-color="#0D8089" stop-opacity="0.78"/>
</linearGradient>
<linearGradient id="paint2_linear" x1="167.547" y1="137.156" x2="167.547" y2="143.688" gradientUnits="userSpaceOnUse">
<stop offset="0.130208" stop-color="#00D6FF" stop-opacity="0.61"/>
<stop offset="0.677083" stop-color="#0D8089" stop-opacity="0.78"/>
</linearGradient>
</defs>
</svg>
