<svg width="215" height="215" viewBox="0 0 215 215" fill="none" xmlns="http://www.w3.org/2000/svg">
<g clip-path="url(#clip0)" filter="url(#filter0_d)">
<path d="M207.548 120.751H196.967L190.299 23.9166C190.174 22.1036 188.666 20.6986 186.848 20.7012H166.148C164.33 20.6986 162.823 22.1036 162.698 23.9166L156.03 120.751H148.9V100.051C148.9 98.1468 147.355 96.6003 145.451 96.6003C144.665 96.5991 143.904 96.8669 143.293 97.3571L114.4 120.472V100.051C114.4 98.1468 112.856 96.6003 110.95 96.6003C110.166 96.5991 109.405 96.8669 108.794 97.3571L79.9004 120.472V100.051C79.9004 98.1468 78.3565 96.6003 76.4513 96.6003C75.6667 96.5991 74.9048 96.8669 74.2946 97.3571L45.4013 120.472V100.051C45.4 98.1468 43.8548 96.6016 41.9508 96.6016C41.3229 96.6016 40.7102 96.7722 40.1732 97.0943L5.67278 117.794C4.6355 118.418 4 119.539 4 120.751V203.551C4 205.456 5.54517 207 7.45042 207H207.548C209.454 207 210.999 205.456 210.999 203.551V124.201C210.999 122.295 209.454 120.751 207.548 120.751ZM169.37 27.6008H183.627L190.052 120.751H162.944L169.37 27.6008ZM121.298 200.1V158.7H141.998V200.1H121.298ZM204.099 200.1H148.9V155.25C148.9 153.346 147.354 151.801 145.448 151.801H117.849C115.943 151.801 114.398 153.346 114.398 155.25V200.1H10.8996V122.704L38.4992 106.144V127.65C38.4992 129.557 40.0431 131.101 41.9483 131.103C42.7316 131.103 43.4935 130.835 44.1063 130.345L72.9996 107.231V127.65C72.9996 129.557 74.5422 131.101 76.4487 131.103C77.2321 131.103 77.9926 130.835 78.6054 130.346L107.499 107.232V127.652C107.499 129.557 109.041 131.103 110.948 131.103C111.731 131.103 112.492 130.835 113.105 130.346L141.998 107.232V124.201C141.998 126.108 143.543 127.652 145.448 127.652H204.097V200.1H204.099Z" fill="url(#paint0_linear)"/>
<path d="M121.275 6.9021C122.53 7.57424 123.663 8.45106 124.63 9.49591C126.564 11.8547 129.318 13.3911 132.339 13.8017C135.522 13.3961 138.427 11.7928 140.468 9.31651C141.341 8.40052 142.318 7.59067 143.38 6.9021C144.09 6.93368 145.95 8.67469 146.951 9.60962C148.812 11.9129 151.485 13.4125 154.419 13.8017C157.807 13.3721 160.904 11.6728 163.086 9.0474C163.931 8.25397 165.211 7.04992 165.458 6.9021C167.311 6.9021 167.735 7.51612 168.875 9.15858C170.372 11.9874 173.298 13.7701 176.5 13.8017C178.404 13.8017 179.949 12.2565 179.949 10.3525C179.949 8.44601 178.404 6.9021 176.5 6.9021C175.808 6.9021 175.675 6.85409 174.554 5.23564C172.722 1.94441 169.223 -0.0682339 165.458 0.0012548C162.668 0.389127 160.128 1.82438 158.359 4.01769C157.213 5.09792 155.293 6.9021 154.564 6.91852C153.495 6.27165 152.52 5.48327 151.658 4.57739C149.584 2.05053 146.622 0.414396 143.379 0.0012548C140.388 0.409342 137.664 1.93304 135.75 4.26532C134.782 5.30386 133.664 6.19205 132.435 6.9021C131.285 6.24259 130.239 5.41883 129.331 4.45231C127.314 2.00379 124.444 0.414396 121.298 0.0012548C119.394 -0.00506234 117.842 1.53379 117.836 3.44031C117.83 5.34429 119.37 6.89578 121.275 6.9021Z" fill="url(#paint1_linear)"/>
<path d="M41.9508 158.7H28.1492C26.2439 158.7 24.7 160.246 24.7 162.15V182.85C24.7 184.756 26.2439 186.3 28.1492 186.3H41.9508C43.8548 186.3 45.4 184.756 45.4 182.85V162.15C45.4 160.246 43.8548 158.7 41.9508 158.7ZM38.4992 179.4H31.5996V165.601H38.4992V179.4Z" fill="url(#paint2_linear)"/>
<path d="M69.5504 158.7H55.75C53.8435 158.7 52.2996 160.246 52.2996 162.15V182.85C52.2996 184.756 53.8435 186.3 55.75 186.3H69.5504C71.4544 186.3 72.9996 184.756 72.9996 182.85V162.15C72.9996 160.246 71.4544 158.7 69.5504 158.7ZM66.0987 179.4H59.1992V165.601H66.0987V179.4Z" fill="url(#paint3_linear)"/>
<path d="M97.15 158.7H83.3496C81.4431 158.7 79.8992 160.246 79.8992 162.15V182.85C79.8992 184.756 81.4431 186.3 83.3496 186.3H97.15C99.054 186.3 100.599 184.756 100.599 182.85V162.15C100.599 160.246 99.054 158.7 97.15 158.7ZM93.6983 179.4H86.7987V165.601H93.6983V179.4Z" fill="url(#paint4_linear)"/>
</g>
<defs>
<filter id="filter0_d" x="0" y="0" width="215" height="215" filterUnits="userSpaceOnUse" color-interpolation-filters="sRGB">
<feFlood flood-opacity="0" result="BackgroundImageFix"/>
<feColorMatrix in="SourceAlpha" type="matrix" values="0 0 0 0 0 0 0 0 0 0 0 0 0 0 0 0 0 0 127 0"/>
<feOffset dy="4"/>
<feGaussianBlur stdDeviation="2"/>
<feColorMatrix type="matrix" values="0 0 0 0 0 0 0 0 0 0 0 0 0 0 0 0 0 0 0.25 0"/>
<feBlend mode="normal" in2="BackgroundImageFix" result="effect1_dropShadow"/>
<feBlend mode="normal" in="SourceGraphic" in2="effect1_dropShadow" result="shape"/>
</filter>
<linearGradient id="paint0_linear" x1="107.499" y1="20.7012" x2="107.499" y2="207" gradientUnits="userSpaceOnUse">
<stop stop-color="#00D6FF" stop-opacity="0.82"/>
<stop offset="0.901042" stop-color="#0E7A83"/>
</linearGradient>
<linearGradient id="paint1_linear" x1="148.892" y1="-0.000488281" x2="148.892" y2="13.8017" gradientUnits="userSpaceOnUse">
<stop stop-color="#00D6FF" stop-opacity="0.82"/>
<stop offset="0.901042" stop-color="#0E7A83"/>
</linearGradient>
<linearGradient id="paint2_linear" x1="35.05" y1="158.7" x2="35.05" y2="186.3" gradientUnits="userSpaceOnUse">
<stop stop-color="#00D6FF" stop-opacity="0.82"/>
<stop offset="0.901042" stop-color="#0E7A83"/>
</linearGradient>
<linearGradient id="paint3_linear" x1="62.6496" y1="158.7" x2="62.6496" y2="186.3" gradientUnits="userSpaceOnUse">
<stop stop-color="#00D6FF" stop-opacity="0.82"/>
<stop offset="0.901042" stop-color="#0E7A83"/>
</linearGradient>
<linearGradient id="paint4_linear" x1="90.2492" y1="158.7" x2="90.2492" y2="186.3" gradientUnits="userSpaceOnUse">
<stop stop-color="#00D6FF" stop-opacity="0.82"/>
<stop offset="0.901042" stop-color="#0E7A83"/>
</linearGradient>
<clipPath id="clip0">
<rect width="207" height="207" fill="white" transform="translate(4)"/>
</clipPath>
</defs>
</svg>
