<svg width="64" height="64" viewBox="0 0 64 64" fill="none" xmlns="http://www.w3.org/2000/svg">
<g clip-path="url(#clip0)">
<path d="M4.00002 4.35495C-1.02931 9.57895 2.27392e-05 15.1283 2.27392e-05 31.987C2.27392e-05 45.987 -2.44264 60.0216 10.3414 63.3256C14.3334 64.3523 49.704 64.3523 53.6907 63.3203C59.0134 61.947 63.344 57.6296 63.936 50.1016C64.0187 49.051 64.0187 14.9416 63.9334 13.8696C63.304 5.85095 58.368 1.22962 51.864 0.29362C50.3734 0.0776199 50.0747 0.0136198 42.4267 0.00028649C15.2987 0.0136198 9.35202 -1.19438 4.00002 4.35495Z" fill="url(#paint0_linear)"/>
<path d="M31.9947 8.37046C22.312 8.37046 13.1173 7.50913 9.60535 16.5225C8.15468 20.2451 8.36535 25.0798 8.36535 32.0025C8.36535 38.0771 8.17068 43.7865 9.60535 47.4798C13.1093 56.4985 22.3787 55.6345 31.9893 55.6345C41.2613 55.6345 50.8214 56.5998 54.376 47.4798C55.8294 43.7198 55.616 38.9571 55.616 32.0025C55.616 22.7705 56.1254 16.8105 51.648 12.3358C47.1147 7.80246 40.984 8.37046 31.984 8.37046H31.9947ZM29.8773 12.6291C50.0747 12.5971 52.6453 10.3518 51.2267 41.5438C50.7227 52.5758 42.3227 51.3651 31.9973 51.3651C13.1707 51.3651 12.6293 50.8265 12.6293 31.9918C12.6293 12.9385 14.1227 12.6398 29.8773 12.6238V12.6291ZM44.608 16.5518C43.0427 16.5518 41.7733 17.8211 41.7733 19.3865C41.7733 20.9518 43.0427 22.2211 44.608 22.2211C46.1733 22.2211 47.4427 20.9518 47.4427 19.3865C47.4427 17.8211 46.1733 16.5518 44.608 16.5518ZM31.9947 19.8665C25.2933 19.8665 19.8613 25.3011 19.8613 32.0025C19.8613 38.7038 25.2933 44.1358 31.9947 44.1358C38.696 44.1358 44.1254 38.7038 44.1254 32.0025C44.1254 25.3011 38.696 19.8665 31.9947 19.8665ZM31.9947 24.1251C42.408 24.1251 42.4213 39.8798 31.9947 39.8798C21.584 39.8798 21.568 24.1251 31.9947 24.1251Z" fill="white"/>
</g>
<defs>
<linearGradient id="paint0_linear" x1="4.12274" y1="59.9125" x2="63.604" y2="8.43223" gradientUnits="userSpaceOnUse">
<stop stop-color="#00D6FF"/>
<stop offset="0.5" stop-color="#206572"/>
<stop offset="1" stop-color="#0E7A83"/>
</linearGradient>
<clipPath id="clip0">
<rect width="64" height="64" fill="white"/>
</clipPath>
</defs>
</svg>
