<svg width="64" height="64" viewBox="0 0 64 64" fill="none" xmlns="http://www.w3.org/2000/svg">
<path d="M64 0H0V64H64V0Z" fill="url(#paint0_linear)"/>
<path d="M16.5796 19.4768C18.1134 23.2645 20.0573 26.8358 22.6176 30.0417C22.9571 30.4684 23.3852 30.8477 23.8361 31.1565C24.4948 31.6088 25.1162 31.4499 25.384 30.6964C25.6672 29.9058 25.9272 28.3034 25.9426 27.4732C25.9849 25.3038 25.9363 23.882 25.8197 21.7153C25.7442 20.3275 25.2509 19.109 23.2095 18.7412C22.5791 18.6271 22.5205 18.1082 22.9255 17.5906C23.7687 16.5129 24.9433 16.3412 26.217 16.2732C28.2814 16.1617 30.3534 16.2527 32.4203 16.2732C33.2622 16.2809 34.1091 16.3487 34.9382 16.5295C36.0197 16.7653 36.5989 17.5239 36.7771 18.5797C36.8694 19.1243 36.9168 19.6842 36.9039 20.2352C36.8501 22.6032 36.7361 24.97 36.7091 27.3367C36.6976 28.2657 36.7654 29.2178 36.9641 30.1225C37.2422 31.3833 38.1007 31.6998 38.9785 30.7888C40.0933 29.6318 41.0762 28.3298 41.9987 27.0075C43.6748 24.6023 44.9266 21.9627 46.0043 19.2411C46.5617 17.8368 46.9884 17.5318 48.4991 17.528C51.3387 17.5215 54.1782 17.519 57.0178 17.528C57.5214 17.5305 58.048 17.578 58.5234 17.7292C59.2948 17.9752 59.6011 18.6044 59.4203 19.4028C58.9988 21.2736 57.9878 22.8637 56.905 24.3925C55.1674 26.845 53.3466 29.2387 51.5681 31.663C51.3413 31.9719 51.1415 32.3012 50.9556 32.6355C50.2905 33.8375 50.3367 34.5115 51.3066 35.5122C52.8507 37.105 54.5038 38.5951 55.9991 40.2315C57.0858 41.4219 58.0916 42.7135 58.9527 44.073C60.0419 45.7926 59.3691 47.4123 57.3343 47.7006C56.0543 47.8813 49.8013 47.702 49.4782 47.7006C47.7971 47.693 46.3235 47.1099 45.1368 45.9682C43.817 44.6971 42.6176 43.3029 41.3503 41.9766C40.9685 41.5768 40.5609 41.1937 40.1215 40.8592C39.0848 40.0686 38.0674 40.2441 37.583 41.4615C37.1692 42.5072 36.8116 45.2531 36.7949 45.4876C36.7079 46.7139 35.9275 47.4955 34.5537 47.5711C30.5879 47.7864 26.7449 47.3443 23.1648 45.4261C20.1305 43.8013 17.7075 41.5038 15.6085 38.8245C12.2744 34.5688 9.6408 29.8908 7.23643 25.0754C7.11355 24.8293 4.67829 19.6472 4.61285 19.4025C4.39532 18.5829 4.59825 17.8 5.29072 17.5305C5.72242 17.3625 13.7516 17.5299 13.8851 17.5371C15.1663 17.6065 16.0399 18.147 16.5796 19.4768Z" fill="white"/>
<defs>
<linearGradient id="paint0_linear" x1="32" y1="0" x2="32" y2="64" gradientUnits="userSpaceOnUse">
<stop stop-color="#00D6FF"/>
<stop offset="0.598958" stop-color="#0D676F" stop-opacity="0.536458"/>
<stop offset="1" stop-color="#16B7C5" stop-opacity="0"/>
</linearGradient>
</defs>
</svg>
