<svg width="231" height="231" viewBox="0 0 231 231" fill="none" xmlns="http://www.w3.org/2000/svg">
<g clip-path="url(#clip0)">
<rect width="231" height="231" fill="url(#paint0_linear)"/>
<g filter="url(#filter0_d)">
<path d="M207.994 183.244C213.188 179.285 216.562 173.051 216.562 166.031C216.562 155.322 208.741 146.429 198.516 144.7V140.766C198.516 130.815 190.42 122.719 180.469 122.719H119.109V109.566C121.058 111.05 123.401 111.891 125.891 111.891C131.97 111.891 136.904 107.047 137.117 101.023C143.007 100.813 147.735 96.0852 147.945 90.1947C153.835 89.9853 158.563 85.257 158.773 79.3665C164.797 79.1536 169.641 74.216 169.641 68.1414C169.641 65.1312 168.468 62.3014 166.342 60.1755L165.591 59.4248C170.55 53.3393 173.25 45.803 173.25 37.8443C173.25 18.9673 157.892 3.60938 139.015 3.60938C130.183 3.60938 121.885 6.95888 115.5 13.0082C109.115 6.95888 100.817 3.60938 91.9849 3.60938C73.1079 3.60938 57.75 18.9673 57.75 37.8443C57.75 46.7125 61.1248 55.0466 67.2246 61.4424C65.7845 63.377 64.9688 65.687 64.9688 68.1414C64.9688 74.2196 69.8125 79.1536 75.8366 79.3665C76.0459 85.257 80.7742 89.9853 86.6647 90.1947C86.874 96.0852 91.6023 100.813 97.4928 101.023C97.7058 107.047 102.643 111.891 108.718 111.891C109.815 111.891 110.869 111.685 111.891 111.385V122.719H50.5312C40.5802 122.719 32.4844 130.815 32.4844 140.766V144.7C22.259 146.429 14.4375 155.322 14.4375 166.031C14.4375 173.051 17.8123 179.285 23.0062 183.244C11.6005 188.29 3.60938 199.699 3.60938 212.953V227.391H68.5781V212.953C68.5781 199.699 60.587 188.29 49.1813 183.244C54.3752 179.285 57.75 173.051 57.75 166.031C57.75 155.322 49.9285 146.429 39.7031 144.7V140.766C39.7031 134.796 44.5613 129.938 50.5312 129.938H111.891V144.7C101.665 146.425 93.8438 155.319 93.8438 166.031C93.8438 173.051 97.2185 179.285 102.412 183.244C91.0068 188.29 83.0156 199.699 83.0156 212.953V227.391H147.984V212.953C147.984 199.699 139.993 188.29 128.588 183.244C133.781 179.285 137.156 173.051 137.156 166.031C137.156 155.322 129.335 146.429 119.109 144.7V129.938H180.469C186.439 129.938 191.297 134.796 191.297 140.766V144.7C181.072 146.425 173.25 155.319 173.25 166.031C173.25 173.051 176.625 179.285 181.819 183.244C170.413 188.29 162.422 199.699 162.422 212.953V227.391H227.391V212.953C227.391 199.699 219.399 188.29 207.994 183.244ZM139.015 10.8281C153.911 10.8281 166.031 22.9484 166.031 37.8443C166.031 43.8683 164.05 49.5748 160.437 54.267L143.841 37.671C144.916 36.8625 145.96 36.0035 146.93 35.0362L141.827 29.9325C137.849 33.9065 132.569 36.0938 126.945 36.0938H121.224L115.063 42.255C114.381 42.9371 113.472 43.3125 112.508 43.3125H98.9474C98.1245 43.3125 97.4531 42.6412 97.4531 41.8182C97.4531 41.4248 97.6119 41.0386 97.8899 40.7607L119.911 18.7399C125.014 13.6398 131.796 10.8281 139.015 10.8281ZM91.9849 10.8281C98.8716 10.8281 105.347 13.4124 110.36 18.0794L92.7826 35.657C91.1403 37.2993 90.2344 39.4902 90.2344 41.8182C90.2344 46.6223 94.1433 50.5312 98.9474 50.5312H112.508C115.399 50.5312 118.12 49.4051 120.167 47.3586L124.213 43.3125H126.945C130.551 43.3125 134.045 42.6231 137.301 41.3418L161.238 65.2792C162 66.0443 162.422 67.0586 162.422 68.1414C162.422 70.372 160.606 72.1875 158.376 72.1875C157.293 72.1875 156.279 71.7652 155.514 71.0036L146.927 62.4169L141.823 67.5206L150.41 76.1073C151.171 76.8725 151.594 77.8867 151.594 78.9695C151.594 81.2001 149.778 83.0156 147.548 83.0156C146.465 83.0156 145.451 82.5933 144.685 81.8318L136.099 73.245L130.995 78.3487L139.582 86.9354C140.343 87.7006 140.766 88.7148 140.766 89.7976C140.766 92.0282 138.95 93.8438 136.72 93.8438C135.637 93.8438 134.622 93.4215 133.857 92.6599L125.271 84.0732L120.167 89.1768L128.754 97.7635C129.515 98.5287 129.938 99.543 129.938 100.626C129.938 102.856 128.122 104.672 125.891 104.672C124.809 104.672 123.794 104.25 123.029 103.488L121.824 102.282C122.405 100.911 122.719 99.4275 122.719 97.8899C122.719 91.8117 117.875 86.8777 111.851 86.6647C111.642 80.7742 106.913 76.0459 101.023 75.8366C100.813 69.9461 96.0852 65.2178 90.1947 65.0085C89.9817 58.9844 85.0441 54.1406 78.9695 54.1406C76.5404 54.1406 74.2521 54.9347 72.3355 56.346C67.5928 51.3145 64.9688 44.7887 64.9688 37.8443C64.9688 22.9484 77.089 10.8281 91.9849 10.8281ZM72.1875 68.1414C72.1875 67.0586 72.6098 66.0443 73.3714 65.2792L76.1073 62.5432C76.8725 61.7817 77.8867 61.3594 78.9695 61.3594C81.2001 61.3594 83.0156 63.1749 83.0156 65.4055C83.0156 66.4883 82.5933 67.5025 81.8318 68.2677L79.0958 71.0036C78.3307 71.7652 77.3164 72.1875 76.2336 72.1875C74.003 72.1875 72.1875 70.372 72.1875 68.1414ZM83.0156 78.9695C83.0156 77.8867 83.4379 76.8725 84.1995 76.1073L86.9354 73.3714C87.7006 72.6098 88.7148 72.1875 89.7976 72.1875C92.0282 72.1875 93.8438 74.003 93.8438 76.2336C93.8438 77.3164 93.4215 78.3307 92.6599 79.0958L89.924 81.8318C89.1588 82.5933 88.1445 83.0156 87.0617 83.0156C84.8311 83.0156 83.0156 81.2001 83.0156 78.9695ZM93.8438 89.7976C93.8438 88.7148 94.266 87.7006 95.0276 86.9354L97.7635 84.1995C98.5287 83.4379 99.543 83.0156 100.626 83.0156C102.856 83.0156 104.672 84.8311 104.672 87.0617C104.672 88.1445 104.25 89.1588 103.488 89.924L100.752 92.6599C99.9869 93.4215 98.9727 93.8438 97.8899 93.8438C95.6593 93.8438 93.8438 92.0282 93.8438 89.7976ZM108.718 104.672C106.487 104.672 104.672 102.856 104.672 100.626C104.672 99.543 105.094 98.5287 105.856 97.7635L108.592 95.0276C109.357 94.266 110.371 93.8438 111.454 93.8438C113.684 93.8438 115.5 95.6593 115.5 97.8899C115.5 98.9727 115.078 99.9869 114.316 100.752L111.58 103.488C110.815 104.25 109.801 104.672 108.718 104.672ZM61.3594 212.953V220.172H54.1406V205.734H46.9219V220.172H25.2656V205.734H18.0469V220.172H10.8281V212.953C10.8281 199.021 22.1616 187.688 36.0938 187.688C50.0259 187.688 61.3594 199.021 61.3594 212.953ZM50.5312 166.031C50.5312 173.994 44.056 180.469 36.0938 180.469C28.1315 180.469 21.6562 173.994 21.6562 166.031C21.6562 158.069 28.1315 151.594 36.0938 151.594C44.056 151.594 50.5312 158.069 50.5312 166.031ZM140.766 212.953V220.172H133.547V205.734H126.328V220.172H104.672V205.734H97.4531V220.172H90.2344V212.953C90.2344 199.021 101.568 187.688 115.5 187.688C129.432 187.688 140.766 199.021 140.766 212.953ZM129.938 166.031C129.938 173.994 123.462 180.469 115.5 180.469C107.538 180.469 101.062 173.994 101.062 166.031C101.062 158.069 107.538 151.594 115.5 151.594C123.462 151.594 129.938 158.069 129.938 166.031ZM180.469 166.031C180.469 158.069 186.944 151.594 194.906 151.594C202.869 151.594 209.344 158.069 209.344 166.031C209.344 173.994 202.869 180.469 194.906 180.469C186.944 180.469 180.469 173.994 180.469 166.031ZM220.172 220.172H212.953V205.734H205.734V220.172H184.078V205.734H176.859V220.172H169.641V212.953C169.641 199.021 180.974 187.688 194.906 187.688C208.838 187.688 220.172 199.021 220.172 212.953V220.172Z" fill="url(#paint1_linear)"/>
</g>
<path d="M137.156 137.156H144.375V144.375H137.156V137.156Z" fill="url(#paint2_linear)"/>
<path d="M151.594 137.156H158.812V144.375H151.594V137.156Z" fill="url(#paint3_linear)"/>
<path d="M166.031 137.156H173.25V144.375H166.031V137.156Z" fill="url(#paint4_linear)"/>
<path d="M57.75 137.156H64.9688V144.375H57.75V137.156Z" fill="url(#paint5_linear)"/>
<path d="M72.1875 137.156H79.4062V144.375H72.1875V137.156Z" fill="url(#paint6_linear)"/>
<path d="M86.625 137.156H93.8438V144.375H86.625V137.156Z" fill="url(#paint7_linear)"/>
</g>
<defs>
<filter id="filter0_d" x="-0.390625" y="3.60938" width="231.781" height="231.781" filterUnits="userSpaceOnUse" color-interpolation-filters="sRGB">
<feFlood flood-opacity="0" result="BackgroundImageFix"/>
<feColorMatrix in="SourceAlpha" type="matrix" values="0 0 0 0 0 0 0 0 0 0 0 0 0 0 0 0 0 0 127 0"/>
<feOffset dy="4"/>
<feGaussianBlur stdDeviation="2"/>
<feColorMatrix type="matrix" values="0 0 0 0 0 0 0 0 0 0 0 0 0 0 0 0 0 0 0.25 0"/>
<feBlend mode="normal" in2="BackgroundImageFix" result="effect1_dropShadow"/>
<feBlend mode="normal" in="SourceGraphic" in2="effect1_dropShadow" result="shape"/>
</filter>
<linearGradient id="paint0_linear" x1="115.5" y1="0" x2="115.5" y2="231" gradientUnits="userSpaceOnUse">
<stop stop-color="white" stop-opacity="0"/>
<stop offset="1" stop-color="white"/>
</linearGradient>
<linearGradient id="paint1_linear" x1="115.5" y1="3.60937" x2="115.5" y2="227.391" gradientUnits="userSpaceOnUse">
<stop offset="0.119792" stop-color="#08E7FA" stop-opacity="0.57"/>
<stop offset="0.708333" stop-color="#0E7A83"/>
</linearGradient>
<linearGradient id="paint2_linear" x1="140.766" y1="137.156" x2="140.766" y2="144.375" gradientUnits="userSpaceOnUse">
<stop offset="0.119792" stop-color="#08E7FA" stop-opacity="0.57"/>
<stop offset="0.708333" stop-color="#0E7A83"/>
</linearGradient>
<linearGradient id="paint3_linear" x1="155.203" y1="137.156" x2="155.203" y2="144.375" gradientUnits="userSpaceOnUse">
<stop offset="0.119792" stop-color="#08E7FA" stop-opacity="0.57"/>
<stop offset="0.708333" stop-color="#0E7A83"/>
</linearGradient>
<linearGradient id="paint4_linear" x1="169.641" y1="137.156" x2="169.641" y2="144.375" gradientUnits="userSpaceOnUse">
<stop offset="0.119792" stop-color="#08E7FA" stop-opacity="0.57"/>
<stop offset="0.708333" stop-color="#0E7A83"/>
</linearGradient>
<linearGradient id="paint5_linear" x1="61.3594" y1="137.156" x2="61.3594" y2="144.375" gradientUnits="userSpaceOnUse">
<stop offset="0.119792" stop-color="#08E7FA" stop-opacity="0.57"/>
<stop offset="0.708333" stop-color="#0E7A83"/>
</linearGradient>
<linearGradient id="paint6_linear" x1="75.7969" y1="137.156" x2="75.7969" y2="144.375" gradientUnits="userSpaceOnUse">
<stop offset="0.119792" stop-color="#08E7FA" stop-opacity="0.57"/>
<stop offset="0.708333" stop-color="#0E7A83"/>
</linearGradient>
<linearGradient id="paint7_linear" x1="90.2344" y1="137.156" x2="90.2344" y2="144.375" gradientUnits="userSpaceOnUse">
<stop offset="0.119792" stop-color="#08E7FA" stop-opacity="0.57"/>
<stop offset="0.708333" stop-color="#0E7A83"/>
</linearGradient>
<clipPath id="clip0">
<rect width="231" height="231" fill="white"/>
</clipPath>
</defs>
</svg>
