<svg width="224" height="224" viewBox="0 0 224 224" fill="none" xmlns="http://www.w3.org/2000/svg">
<g clip-path="url(#clip0)">
<g filter="url(#filter0_d)">
<path d="M139.173 164.739C145.722 164.739 152.27 162.246 157.256 157.26C167.226 147.29 167.226 131.067 157.256 121.097C147.285 111.126 131.062 111.126 121.091 121.097C111.121 131.067 111.121 147.29 121.091 157.26C126.076 162.246 132.625 164.739 139.173 164.739ZM125.73 125.735C129.437 122.028 134.304 120.175 139.173 120.175C144.042 120.175 148.912 122.028 152.617 125.735C160.03 133.148 160.03 145.209 152.617 152.622C145.205 160.036 133.142 160.035 125.73 152.622C118.316 145.209 118.316 133.148 125.73 125.735Z" fill="url(#paint0_linear)"/>
<path d="M109.406 109.411C97.2037 121.614 93.6756 139.761 100.418 155.644C101.126 157.312 103.053 158.089 104.719 157.382C106.386 156.674 107.164 154.749 106.456 153.081C100.764 139.672 103.743 124.351 114.044 114.049C127.901 100.193 150.448 100.193 164.304 114.049C178.16 127.906 178.16 150.452 164.304 164.308C157.647 170.965 148.797 174.661 139.384 174.717C139.313 174.717 139.242 174.717 139.17 174.717C129.845 174.717 121.043 171.138 114.367 164.626C113.07 163.361 110.993 163.387 109.729 164.684C108.464 165.981 108.49 168.057 109.787 169.322C117.697 177.037 128.123 181.277 139.169 181.276C139.254 181.276 139.338 181.276 139.423 181.275C150.573 181.21 161.057 176.831 168.942 168.946C185.356 152.532 185.356 125.825 168.942 109.41C152.527 92.9969 125.82 92.9969 109.406 109.411Z" fill="url(#paint1_linear)"/>
<path d="M217.715 124.453H206.045C204.312 116.545 201.229 109.095 196.878 102.3L205.123 94.0547C206.31 92.8683 206.963 91.291 206.963 89.6131C206.963 87.9352 206.31 86.3579 205.123 85.172L193.181 73.2299C191.994 72.0435 190.417 71.3897 188.739 71.3897C187.062 71.3897 185.485 72.0431 184.298 73.2294L176.053 81.4751C169.258 77.124 161.808 74.0411 153.9 72.3076V60.6375C153.9 57.1746 151.082 54.3567 147.619 54.3567H130.73C128.779 54.3567 127.033 55.2514 125.88 56.6516H123.737C122.34 50.5369 119.95 44.762 116.625 39.465L122.933 33.157C125.157 30.9325 125.157 27.3134 122.933 25.0885L113.281 15.4365C112.203 14.359 110.771 13.7656 109.247 13.7656C107.723 13.7656 106.29 14.359 105.213 15.437L98.9042 21.7445C93.6086 18.4202 87.8332 16.0304 81.7176 14.6328V5.70539C81.7181 2.55949 79.159 0 76.0127 0H62.363C59.2171 0 56.6576 2.55949 56.6576 5.70539V14.6332C50.5424 16.0308 44.7666 18.4211 39.471 21.7449L33.1639 15.4374C32.0864 14.3595 30.6538 13.766 29.1294 13.766C27.605 13.766 26.172 14.3595 25.0945 15.4374L15.4434 25.0889C13.2193 27.3134 13.2193 30.9325 15.4434 33.1575L21.7514 39.4654C18.4271 44.7611 16.0372 50.5369 14.6396 56.652H5.71183C2.56593 56.652 0.00643921 59.2115 0.00643921 62.3574V76.0071C0.00643921 79.153 2.56593 81.7125 5.71183 81.7125H14.6396C16.0372 87.8281 18.4271 93.6039 21.7514 98.8991L15.4434 105.207C13.2189 107.432 13.2189 111.051 15.4434 113.276L25.0949 122.928C27.3194 125.152 30.9385 125.153 33.1639 122.928L39.4719 116.62C44.7671 119.944 50.542 122.334 56.658 123.731V125.878C55.2521 127.03 54.353 128.779 54.353 130.735V147.624C54.353 151.088 57.1705 153.905 60.6339 153.905H72.304C74.0374 161.814 77.1208 169.265 81.471 176.058L73.2262 184.304C72.0394 185.49 71.3861 187.067 71.3861 188.745C71.3861 190.423 72.0394 192.001 73.2258 193.186L85.1683 205.129C86.3547 206.315 87.9316 206.969 89.6095 206.969C91.2874 206.969 92.8643 206.315 94.0511 205.129L102.296 196.883C109.091 201.234 116.542 204.318 124.449 206.05V217.72C124.449 221.184 127.267 224.001 130.73 224.001H147.619C151.082 224.001 153.9 221.184 153.9 217.72V206.049C161.808 204.316 169.259 201.233 176.053 196.882L184.298 205.128C185.485 206.314 187.062 206.967 188.739 206.967C190.417 206.967 191.994 206.314 193.181 205.128L205.123 193.186C206.31 191.999 206.963 190.422 206.963 188.744C206.963 187.066 206.31 185.489 205.123 184.303L196.878 176.057C201.228 169.264 204.312 161.812 206.045 153.904H217.715C221.178 153.904 223.996 151.086 223.996 147.623V130.734C223.996 127.271 221.178 124.453 217.715 124.453ZM58.7041 117.466C52.8946 116.211 47.4271 113.949 42.4525 110.741C40.2035 109.292 37.2045 109.609 35.3193 111.494L29.1294 117.685L20.6852 109.241L26.8756 103.05C28.7608 101.164 29.0774 98.1649 27.6286 95.9167C24.4211 90.9425 22.1585 85.4746 20.9035 79.6647C20.338 77.0501 17.9928 75.1522 15.3266 75.1522H6.56586V63.211H15.3271C17.9928 63.211 20.3385 61.3131 20.9043 58.6972C22.1589 52.8882 24.4215 47.4207 27.6291 42.446C29.0778 40.1988 28.7612 37.1989 26.876 35.3133L20.6857 29.123L29.1298 20.6788L35.3198 26.8692C37.2049 28.7548 40.2035 29.0714 42.4534 27.6222C47.428 24.4146 52.8955 22.1521 58.7041 20.8975C61.3191 20.3325 63.2174 17.9868 63.2174 15.3202V6.55943H75.1591V15.3206C75.1591 17.9873 77.0574 20.3329 79.6724 20.8979C85.481 22.1525 90.9485 24.4151 95.9236 27.6222C98.1713 29.0709 101.171 28.7552 103.057 26.8692L109.247 20.6788L117.691 29.123L111.501 35.3129C109.615 37.1985 109.299 40.1983 110.748 42.446C113.956 47.4216 116.218 52.8895 117.473 58.6972C118.038 61.3127 120.383 63.211 123.05 63.211H124.45V72.3076C116.542 74.0406 109.091 77.124 102.297 81.4751L94.0511 73.2294C93.9531 73.1315 93.8491 73.0431 93.7459 72.9526C94.8964 65.3975 92.5722 57.4107 86.7662 51.6048C79.8976 44.7357 69.5775 42.495 60.4752 45.8954C58.7785 46.5295 57.9165 48.4191 58.5511 50.1158C59.1847 51.8125 61.0742 52.6739 62.771 52.0403C69.4721 49.5359 77.0709 51.1854 82.1283 56.2427C86.3722 60.4867 88.082 66.3123 87.277 71.8393C86.4973 72.1511 85.7805 72.6181 85.1688 73.2294L73.2267 85.1715C72.6136 85.7842 72.1461 86.5026 71.8343 87.2837C70.9654 87.41 70.083 87.4809 69.1887 87.4809C64.3006 87.4809 59.7055 85.5773 56.2496 82.1214C50.4738 76.3456 49.2288 67.3443 53.2217 60.2317C54.1081 58.6522 53.5466 56.6529 51.9671 55.7665C50.3885 54.8801 48.3888 55.4416 47.5019 57.0211C42.0764 66.6862 43.7661 78.9151 51.6107 86.7598C56.4568 91.6059 62.823 94.0289 69.1883 94.0289C70.4433 94.0289 71.697 93.9297 72.9403 93.7403C73.0334 93.8466 73.1248 93.9541 73.2258 94.0547L81.471 102.3C77.1208 109.094 74.037 116.546 72.304 124.454H63.2174V123.043C63.2174 120.377 61.3196 118.031 58.7041 117.466ZM217.437 147.344H205.818C202.883 147.344 200.301 149.435 199.678 152.315C198.106 159.594 195.271 166.446 191.252 172.68C189.656 175.155 190.004 178.458 192.079 180.534L200.288 188.744L188.74 200.292L180.531 192.082C178.456 190.007 175.152 189.658 172.677 191.254C166.443 195.274 159.591 198.109 152.311 199.681C149.431 200.303 147.341 202.886 147.341 205.821V217.44H131.009V205.821C131.009 202.886 128.919 200.304 126.038 199.681C118.76 198.109 111.908 195.274 105.673 191.254C103.199 189.659 99.8955 190.006 97.8193 192.082L89.6104 200.292L78.0618 188.743L86.2708 180.533C88.347 178.457 88.6951 175.155 87.099 172.68C83.0798 166.445 80.2444 159.594 78.6719 152.314C78.0492 149.434 75.4674 147.344 72.5318 147.344H60.9133V131.011H72.5318C75.4674 131.011 78.0492 128.921 78.6719 126.041C80.2444 118.761 83.0794 111.909 87.0985 105.676C88.6951 103.2 88.347 99.8974 86.2712 97.822L78.0618 89.6123L89.6104 78.0637L97.8193 86.2735C99.8947 88.3489 103.198 88.697 105.673 87.1017C111.908 83.0821 118.76 80.2467 126.038 78.6746C128.919 78.0524 131.009 75.4701 131.009 72.5346V60.9156H147.341V72.5341C147.341 75.4697 149.431 78.0519 152.311 78.6742C159.591 80.2463 166.442 83.0817 172.677 87.1013C175.152 88.6966 178.455 88.3493 180.531 86.2731L188.74 78.0633L200.288 89.6118L192.079 97.8229C190.003 99.8987 189.655 103.202 191.251 105.676C195.27 111.91 198.105 118.762 199.678 126.042C200.301 128.922 202.882 131.013 205.818 131.013H217.437V147.344H217.437Z" fill="url(#paint2_linear)"/>
</g>
</g>
<defs>
<filter id="filter0_d" x="-3.99356" y="0" width="231.989" height="232.001" filterUnits="userSpaceOnUse" color-interpolation-filters="sRGB">
<feFlood flood-opacity="0" result="BackgroundImageFix"/>
<feColorMatrix in="SourceAlpha" type="matrix" values="0 0 0 0 0 0 0 0 0 0 0 0 0 0 0 0 0 0 127 0"/>
<feOffset dy="4"/>
<feGaussianBlur stdDeviation="2"/>
<feColorMatrix type="matrix" values="0 0 0 0 0 0 0 0 0 0 0 0 0 0 0 0 0 0 0.25 0"/>
<feBlend mode="normal" in2="BackgroundImageFix" result="effect1_dropShadow"/>
<feBlend mode="normal" in="SourceGraphic" in2="effect1_dropShadow" result="shape"/>
</filter>
<linearGradient id="paint0_linear" x1="139.174" y1="113.619" x2="139.174" y2="164.739" gradientUnits="userSpaceOnUse">
<stop stop-color="#00D6FF" stop-opacity="0"/>
<stop offset="0.0001" stop-color="#01D0F7" stop-opacity="0.55"/>
<stop offset="1" stop-color="#0E7A83"/>
</linearGradient>
<linearGradient id="paint1_linear" x1="139.146" y1="97.1003" x2="139.146" y2="181.276" gradientUnits="userSpaceOnUse">
<stop stop-color="#00D6FF" stop-opacity="0"/>
<stop offset="0.0001" stop-color="#01D0F7" stop-opacity="0.55"/>
<stop offset="1" stop-color="#0E7A83"/>
</linearGradient>
<linearGradient id="paint2_linear" x1="112.001" y1="0" x2="112.001" y2="224.001" gradientUnits="userSpaceOnUse">
<stop stop-color="#00D6FF" stop-opacity="0"/>
<stop offset="0.0001" stop-color="#01D0F7" stop-opacity="0.55"/>
<stop offset="1" stop-color="#0E7A83"/>
</linearGradient>
<clipPath id="clip0">
<rect width="224" height="224" fill="white"/>
</clipPath>
</defs>
</svg>
